<svg role="graphics-document" title="DSEE_Logo_neu" alt="Logo Deutsche Stiftung für Engagement und Ehrenamt" version="1.1" id="Ebene_1" xmlns="http://www.w3.org/2000/svg" xmlns:xlink="http://www.w3.org/1999/xlink" x="0px" y="0px" viewBox="0 0 150.24 46.33" style="max-height: 130px;" xml:space="preserve" preserveAspectRatio="xMinYMid meet">
<style type="text/css">
.st0{fill:#FFCD00;}
.st1{fill:#E30613;}
</style>
<g>
<g>
<path d="M65.7,10.28c0,0.58-0.1,1.12-0.29,1.6c-0.2,0.49-0.47,0.91-0.83,1.26c-0.36,0.35-0.79,0.62-1.29,0.82
c-0.5,0.2-1.06,0.3-1.67,0.3h-3.06V6.3h3.06c0.61,0,1.17,0.1,1.67,0.3s0.93,0.47,1.29,0.82c0.36,0.35,0.63,0.77,0.83,1.26
S65.7,9.7,65.7,10.28z M64.01,10.28c0-0.42-0.05-0.79-0.16-1.12c-0.11-0.33-0.27-0.61-0.47-0.84c-0.21-0.23-0.45-0.41-0.75-0.53
c-0.29-0.12-0.63-0.19-1-0.19h-1.4v5.38h1.4c0.37,0,0.71-0.06,1-0.18c0.29-0.12,0.54-0.3,0.75-0.53c0.2-0.23,0.36-0.51,0.47-0.85
C63.96,11.07,64.01,10.7,64.01,10.28z"></path>
<path d="M67.9,11.66c0.05,0.53,0.2,0.92,0.45,1.16c0.25,0.24,0.59,0.37,0.99,0.37c0.21,0,0.39-0.02,0.54-0.07
c0.15-0.05,0.29-0.1,0.4-0.16c0.11-0.06,0.22-0.11,0.31-0.16c0.09-0.05,0.19-0.07,0.28-0.07c0.12,0,0.21,0.04,0.27,0.13l0.44,0.55
c-0.16,0.19-0.34,0.34-0.53,0.46c-0.19,0.12-0.39,0.22-0.6,0.29c-0.21,0.07-0.42,0.12-0.63,0.15c-0.21,0.03-0.42,0.04-0.61,0.04
c-0.39,0-0.76-0.06-1.1-0.19c-0.34-0.13-0.64-0.32-0.89-0.58c-0.25-0.25-0.45-0.57-0.6-0.95c-0.15-0.38-0.22-0.81-0.22-1.31
c0-0.38,0.06-0.75,0.19-1.09c0.13-0.34,0.31-0.64,0.54-0.89c0.24-0.25,0.53-0.45,0.87-0.6c0.34-0.15,0.72-0.22,1.15-0.22
c0.36,0,0.69,0.06,1,0.17c0.3,0.12,0.57,0.28,0.79,0.5c0.22,0.22,0.39,0.49,0.51,0.81c0.12,0.32,0.18,0.68,0.18,1.09
c0,0.11-0.01,0.21-0.02,0.28c-0.01,0.07-0.03,0.13-0.05,0.18c-0.03,0.04-0.06,0.07-0.1,0.09c-0.04,0.02-0.1,0.03-0.17,0.03H67.9z
M70.28,10.77c0-0.16-0.02-0.31-0.06-0.45c-0.04-0.14-0.11-0.27-0.2-0.38c-0.09-0.11-0.21-0.2-0.35-0.26
c-0.14-0.06-0.3-0.1-0.5-0.1c-0.36,0-0.65,0.1-0.85,0.31c-0.2,0.2-0.34,0.5-0.4,0.88H70.28z"></path>
<path d="M77.58,8.61v5.65h-0.93c-0.19,0-0.32-0.09-0.37-0.26l-0.1-0.39c-0.11,0.11-0.23,0.21-0.35,0.3
c-0.12,0.09-0.25,0.17-0.39,0.24c-0.14,0.07-0.28,0.12-0.44,0.15c-0.16,0.04-0.33,0.05-0.52,0.05c-0.31,0-0.58-0.05-0.82-0.16
c-0.24-0.11-0.44-0.25-0.6-0.44c-0.16-0.19-0.28-0.42-0.37-0.68s-0.13-0.55-0.13-0.87V8.61h1.51v3.59c0,0.31,0.07,0.56,0.22,0.73
c0.15,0.17,0.36,0.26,0.64,0.26c0.21,0,0.41-0.05,0.6-0.14c0.19-0.09,0.36-0.22,0.53-0.38V8.61H77.58z"></path>
<path d="M80.84,14.34c-0.26,0-0.48-0.04-0.68-0.11c-0.2-0.07-0.36-0.18-0.5-0.32c-0.14-0.14-0.24-0.31-0.31-0.5
c-0.07-0.2-0.1-0.42-0.1-0.67V9.69h-0.53c-0.08,0-0.15-0.03-0.21-0.08c-0.06-0.05-0.09-0.13-0.09-0.23V8.79l0.9-0.16l0.31-1.46
c0.04-0.16,0.15-0.25,0.33-0.25h0.79v1.72h1.46v1.05h-1.46v2.95c0,0.16,0.04,0.28,0.11,0.37c0.07,0.09,0.18,0.14,0.32,0.14
c0.07,0,0.14-0.01,0.19-0.02c0.05-0.02,0.09-0.04,0.13-0.06c0.04-0.02,0.07-0.04,0.1-0.05c0.03-0.02,0.06-0.02,0.1-0.02
c0.04,0,0.08,0.01,0.11,0.03c0.03,0.02,0.06,0.05,0.09,0.1l0.45,0.72c-0.21,0.16-0.44,0.29-0.71,0.37
C81.39,14.3,81.12,14.34,80.84,14.34z"></path>
<path d="M86.59,9.77c-0.04,0.06-0.08,0.11-0.12,0.13s-0.1,0.04-0.17,0.04c-0.07,0-0.15-0.02-0.22-0.05
c-0.08-0.04-0.16-0.08-0.26-0.12c-0.1-0.04-0.2-0.08-0.33-0.12c-0.12-0.04-0.26-0.05-0.42-0.05c-0.25,0-0.44,0.05-0.57,0.15
c-0.14,0.1-0.2,0.23-0.2,0.4c0,0.11,0.04,0.21,0.12,0.29c0.08,0.08,0.18,0.14,0.3,0.2c0.13,0.06,0.27,0.11,0.43,0.16
c0.16,0.05,0.33,0.1,0.5,0.16c0.17,0.06,0.34,0.13,0.5,0.2c0.16,0.08,0.3,0.17,0.43,0.29c0.13,0.11,0.23,0.25,0.3,0.42
c0.08,0.16,0.11,0.36,0.11,0.59c0,0.27-0.05,0.53-0.15,0.76c-0.1,0.23-0.25,0.43-0.44,0.6c-0.19,0.17-0.44,0.3-0.72,0.39
c-0.29,0.1-0.62,0.14-1,0.14c-0.19,0-0.39-0.02-0.58-0.05c-0.19-0.03-0.37-0.08-0.54-0.15c-0.17-0.06-0.33-0.14-0.48-0.22
c-0.15-0.08-0.28-0.18-0.39-0.27l0.35-0.56c0.04-0.07,0.09-0.12,0.15-0.15c0.06-0.04,0.14-0.06,0.23-0.06
c0.09,0,0.18,0.02,0.25,0.07c0.08,0.05,0.16,0.1,0.26,0.15c0.1,0.05,0.21,0.1,0.34,0.15c0.13,0.05,0.29,0.07,0.49,0.07
c0.15,0,0.27-0.02,0.38-0.05c0.11-0.03,0.19-0.08,0.26-0.13c0.07-0.06,0.11-0.12,0.15-0.19c0.03-0.07,0.05-0.15,0.05-0.22
c0-0.12-0.04-0.23-0.12-0.3c-0.08-0.08-0.18-0.15-0.31-0.21c-0.13-0.06-0.27-0.11-0.44-0.16c-0.16-0.05-0.33-0.1-0.5-0.16
c-0.17-0.06-0.34-0.13-0.5-0.21c-0.16-0.08-0.31-0.18-0.43-0.3c-0.13-0.12-0.23-0.27-0.31-0.45c-0.08-0.18-0.12-0.4-0.12-0.65
c0-0.23,0.05-0.46,0.14-0.67c0.09-0.21,0.23-0.4,0.41-0.56c0.18-0.16,0.41-0.29,0.68-0.38c0.27-0.09,0.59-0.14,0.95-0.14
c0.4,0,0.77,0.07,1.1,0.2c0.33,0.13,0.6,0.3,0.81,0.51L86.59,9.77z"></path>
<path d="M92.08,9.87c-0.04,0.06-0.09,0.1-0.13,0.13c-0.04,0.03-0.11,0.05-0.19,0.05c-0.07,0-0.14-0.02-0.21-0.06
c-0.07-0.04-0.15-0.09-0.23-0.14c-0.09-0.05-0.19-0.1-0.31-0.14c-0.12-0.04-0.27-0.06-0.45-0.06c-0.23,0-0.42,0.04-0.59,0.12
c-0.17,0.08-0.3,0.2-0.41,0.35c-0.11,0.15-0.19,0.34-0.24,0.56c-0.05,0.22-0.08,0.47-0.08,0.74c0,0.58,0.12,1.02,0.35,1.33
c0.23,0.31,0.55,0.46,0.95,0.46c0.14,0,0.26-0.01,0.36-0.04c0.1-0.02,0.19-0.05,0.26-0.09c0.07-0.04,0.14-0.08,0.19-0.12
c0.05-0.04,0.11-0.08,0.16-0.12c0.05-0.04,0.1-0.07,0.15-0.09c0.05-0.02,0.11-0.04,0.17-0.04c0.12,0,0.21,0.04,0.27,0.13
l0.43,0.55c-0.16,0.19-0.33,0.34-0.52,0.46c-0.18,0.12-0.37,0.22-0.57,0.29c-0.19,0.07-0.39,0.12-0.59,0.15
c-0.2,0.03-0.4,0.04-0.6,0.04c-0.35,0-0.68-0.06-0.99-0.19c-0.31-0.13-0.58-0.32-0.82-0.57c-0.23-0.25-0.42-0.55-0.56-0.91
s-0.21-0.77-0.21-1.24c0-0.41,0.06-0.8,0.18-1.15c0.12-0.35,0.3-0.66,0.53-0.92c0.23-0.26,0.52-0.46,0.87-0.61
c0.34-0.15,0.74-0.22,1.2-0.22c0.43,0,0.81,0.07,1.13,0.21c0.33,0.14,0.62,0.34,0.88,0.6L92.08,9.87z"></path>
<path d="M94.86,9.16c0.11-0.1,0.22-0.18,0.33-0.26c0.11-0.08,0.24-0.15,0.37-0.2c0.13-0.06,0.27-0.1,0.42-0.13
s0.31-0.05,0.48-0.05c0.31,0,0.58,0.05,0.82,0.16c0.24,0.11,0.44,0.25,0.6,0.44c0.16,0.19,0.29,0.42,0.37,0.68
c0.08,0.26,0.12,0.55,0.12,0.87v3.59h-1.51v-3.59c0-0.31-0.07-0.56-0.22-0.73c-0.15-0.17-0.36-0.26-0.65-0.26
c-0.21,0-0.41,0.05-0.6,0.14c-0.19,0.09-0.36,0.22-0.53,0.38v4.06h-1.51V6.08h1.51V9.16z"></path>
<path d="M100.82,11.66c0.05,0.53,0.2,0.92,0.45,1.16c0.25,0.24,0.59,0.37,0.99,0.37c0.21,0,0.39-0.02,0.54-0.07
c0.15-0.05,0.29-0.1,0.4-0.16c0.11-0.06,0.22-0.11,0.31-0.16c0.09-0.05,0.19-0.07,0.28-0.07c0.12,0,0.21,0.04,0.27,0.13l0.44,0.55
c-0.16,0.19-0.34,0.34-0.53,0.46c-0.19,0.12-0.39,0.22-0.6,0.29c-0.21,0.07-0.42,0.12-0.63,0.15s-0.42,0.04-0.61,0.04
c-0.39,0-0.76-0.06-1.1-0.19c-0.34-0.13-0.64-0.32-0.89-0.58c-0.25-0.25-0.45-0.57-0.6-0.95c-0.15-0.38-0.22-0.81-0.22-1.31
c0-0.38,0.06-0.75,0.19-1.09c0.13-0.34,0.31-0.64,0.54-0.89s0.53-0.45,0.87-0.6c0.34-0.15,0.72-0.22,1.15-0.22
c0.36,0,0.69,0.06,1,0.17c0.3,0.12,0.57,0.28,0.79,0.5c0.22,0.22,0.39,0.49,0.51,0.81c0.12,0.32,0.18,0.68,0.18,1.09
c0,0.11-0.01,0.21-0.02,0.28c-0.01,0.07-0.03,0.13-0.05,0.18c-0.03,0.04-0.06,0.07-0.1,0.09c-0.04,0.02-0.1,0.03-0.17,0.03H100.82
z M103.2,10.77c0-0.16-0.02-0.31-0.06-0.45c-0.04-0.14-0.11-0.27-0.2-0.38c-0.09-0.11-0.21-0.2-0.35-0.26
c-0.14-0.06-0.3-0.1-0.5-0.1c-0.36,0-0.65,0.1-0.85,0.31s-0.34,0.5-0.4,0.88H103.2z"></path>
<path d="M112.72,7.83c-0.05,0.08-0.1,0.15-0.16,0.18c-0.05,0.04-0.12,0.06-0.21,0.06c-0.08,0-0.17-0.03-0.26-0.08
c-0.09-0.06-0.2-0.12-0.33-0.18c-0.12-0.07-0.27-0.13-0.43-0.18c-0.16-0.06-0.35-0.09-0.56-0.09c-0.38,0-0.67,0.09-0.86,0.25
c-0.19,0.17-0.29,0.39-0.29,0.67c0,0.18,0.05,0.32,0.16,0.44c0.1,0.11,0.24,0.22,0.41,0.3c0.17,0.08,0.36,0.16,0.58,0.22
c0.22,0.07,0.44,0.14,0.66,0.22c0.23,0.08,0.45,0.17,0.66,0.28c0.22,0.11,0.41,0.24,0.58,0.4c0.17,0.16,0.31,0.36,0.41,0.59
c0.1,0.23,0.16,0.51,0.16,0.85c0,0.36-0.06,0.7-0.19,1.02c-0.13,0.32-0.31,0.59-0.54,0.83s-0.53,0.42-0.88,0.56
c-0.35,0.14-0.74,0.2-1.19,0.2c-0.25,0-0.5-0.03-0.75-0.08c-0.25-0.05-0.49-0.12-0.72-0.21c-0.23-0.09-0.45-0.2-0.65-0.33
c-0.21-0.13-0.38-0.27-0.54-0.43l0.48-0.78c0.04-0.06,0.09-0.11,0.16-0.15c0.07-0.04,0.14-0.06,0.21-0.06
c0.1,0,0.2,0.04,0.31,0.11c0.11,0.07,0.24,0.15,0.38,0.24c0.14,0.09,0.31,0.17,0.5,0.24s0.41,0.11,0.68,0.11
c0.38,0,0.68-0.09,0.89-0.26c0.21-0.18,0.32-0.44,0.32-0.78c0-0.2-0.05-0.36-0.16-0.49c-0.1-0.12-0.24-0.23-0.41-0.31
c-0.17-0.08-0.36-0.16-0.58-0.22c-0.22-0.06-0.44-0.13-0.66-0.2c-0.23-0.07-0.45-0.16-0.66-0.26c-0.22-0.1-0.41-0.24-0.58-0.41
c-0.17-0.17-0.3-0.38-0.41-0.62c-0.1-0.25-0.16-0.56-0.16-0.93c0-0.3,0.06-0.58,0.18-0.86c0.12-0.28,0.29-0.52,0.51-0.74
c0.23-0.22,0.51-0.39,0.84-0.52c0.33-0.13,0.71-0.2,1.14-0.2c0.48,0,0.92,0.07,1.33,0.22c0.41,0.15,0.75,0.35,1.03,0.62
L112.72,7.83z"></path>
<path d="M116.47,14.34c-0.26,0-0.48-0.04-0.68-0.11c-0.2-0.07-0.36-0.18-0.5-0.32c-0.14-0.14-0.24-0.31-0.31-0.5
c-0.07-0.2-0.1-0.42-0.1-0.67V9.69h-0.53c-0.08,0-0.15-0.03-0.21-0.08c-0.06-0.05-0.08-0.13-0.08-0.23V8.79l0.9-0.16l0.31-1.46
c0.04-0.16,0.15-0.25,0.33-0.25h0.79v1.72h1.46v1.05h-1.46v2.95c0,0.16,0.04,0.28,0.11,0.37c0.07,0.09,0.18,0.14,0.32,0.14
c0.07,0,0.14-0.01,0.19-0.02c0.05-0.02,0.1-0.04,0.13-0.06c0.04-0.02,0.07-0.04,0.1-0.05c0.03-0.02,0.06-0.02,0.1-0.02
c0.04,0,0.08,0.01,0.11,0.03c0.03,0.02,0.06,0.05,0.09,0.1l0.45,0.72c-0.21,0.16-0.44,0.29-0.71,0.37
C117.02,14.3,116.75,14.34,116.47,14.34z"></path>
<path d="M120.67,7c0,0.13-0.03,0.25-0.08,0.36c-0.05,0.11-0.12,0.21-0.21,0.29c-0.09,0.08-0.19,0.15-0.3,0.2
c-0.11,0.05-0.24,0.07-0.37,0.07c-0.12,0-0.24-0.02-0.35-0.07c-0.11-0.05-0.21-0.11-0.29-0.2c-0.08-0.08-0.15-0.18-0.2-0.29
c-0.05-0.11-0.07-0.23-0.07-0.36c0-0.13,0.03-0.25,0.07-0.36c0.05-0.11,0.12-0.21,0.2-0.29c0.08-0.08,0.18-0.15,0.29-0.2
c0.11-0.05,0.23-0.07,0.35-0.07c0.13,0,0.25,0.02,0.37,0.07c0.11,0.05,0.22,0.11,0.3,0.2c0.09,0.08,0.15,0.18,0.21,0.29
C120.64,6.75,120.67,6.87,120.67,7z M120.49,8.61v5.65h-1.51V8.61H120.49z"></path>
<path d="M122.02,14.26V9.69l-0.44-0.08c-0.11-0.02-0.21-0.06-0.28-0.12c-0.07-0.06-0.11-0.14-0.11-0.25v-0.6h0.82V8.27
c0-0.32,0.05-0.61,0.15-0.87c0.1-0.26,0.24-0.48,0.43-0.66c0.19-0.18,0.41-0.32,0.69-0.42c0.27-0.1,0.58-0.15,0.92-0.15
c0.13,0,0.26,0.01,0.38,0.03c0.12,0.02,0.24,0.04,0.36,0.07l-0.03,0.75c-0.01,0.11-0.06,0.19-0.15,0.22
c-0.09,0.03-0.19,0.05-0.3,0.05c-0.15,0-0.29,0.02-0.41,0.05c-0.12,0.03-0.23,0.09-0.31,0.17c-0.08,0.08-0.15,0.18-0.19,0.32
s-0.07,0.3-0.07,0.5v0.33h1.4v1.05h-1.35v4.57H122.02z"></path>
<path d="M127.81,14.34c-0.26,0-0.48-0.04-0.68-0.11c-0.2-0.07-0.36-0.18-0.5-0.32c-0.14-0.14-0.24-0.31-0.31-0.5
c-0.07-0.2-0.1-0.42-0.1-0.67V9.69h-0.53c-0.08,0-0.15-0.03-0.21-0.08c-0.06-0.05-0.08-0.13-0.08-0.23V8.79l0.9-0.16l0.31-1.46
c0.04-0.16,0.15-0.25,0.33-0.25h0.79v1.72h1.46v1.05h-1.46v2.95c0,0.16,0.04,0.28,0.11,0.37c0.07,0.09,0.18,0.14,0.32,0.14
c0.07,0,0.14-0.01,0.19-0.02c0.05-0.02,0.1-0.04,0.13-0.06c0.04-0.02,0.07-0.04,0.1-0.05s0.06-0.02,0.1-0.02
c0.04,0,0.08,0.01,0.11,0.03c0.03,0.02,0.06,0.05,0.09,0.1l0.45,0.72c-0.21,0.16-0.44,0.29-0.71,0.37
C128.36,14.3,128.09,14.34,127.81,14.34z"></path>
<path d="M135.01,8.61v5.65h-0.93c-0.19,0-0.32-0.09-0.37-0.26l-0.1-0.39c-0.11,0.11-0.23,0.21-0.35,0.3
c-0.12,0.09-0.25,0.17-0.39,0.24c-0.14,0.07-0.29,0.12-0.44,0.15c-0.16,0.04-0.33,0.05-0.52,0.05c-0.31,0-0.58-0.05-0.82-0.16
c-0.24-0.11-0.44-0.25-0.6-0.44c-0.16-0.19-0.28-0.42-0.37-0.68c-0.08-0.26-0.13-0.55-0.13-0.87V8.61h1.51v3.59
c0,0.31,0.07,0.56,0.22,0.73c0.14,0.17,0.36,0.26,0.64,0.26c0.21,0,0.41-0.05,0.6-0.14c0.19-0.09,0.36-0.22,0.53-0.38V8.61H135.01
z"></path>
<path d="M137.72,9.26c0.11-0.11,0.23-0.21,0.35-0.3c0.12-0.09,0.25-0.17,0.39-0.24c0.14-0.07,0.29-0.12,0.44-0.15
c0.16-0.04,0.33-0.05,0.52-0.05c0.31,0,0.58,0.05,0.82,0.16c0.24,0.11,0.44,0.25,0.6,0.44c0.16,0.19,0.29,0.42,0.37,0.68
c0.08,0.26,0.12,0.55,0.12,0.87v3.59h-1.51v-3.59c0-0.31-0.07-0.56-0.22-0.73c-0.15-0.17-0.36-0.26-0.65-0.26
c-0.21,0-0.41,0.05-0.6,0.14c-0.19,0.09-0.36,0.22-0.53,0.38v4.06h-1.51V8.61h0.93c0.19,0,0.32,0.09,0.38,0.26L137.72,9.26z"></path>
<path d="M147.4,8.79v0.55c0,0.09-0.02,0.16-0.07,0.21c-0.05,0.05-0.13,0.09-0.24,0.12l-0.46,0.09c0.06,0.18,0.09,0.37,0.09,0.58
c0,0.28-0.06,0.53-0.17,0.76c-0.11,0.22-0.27,0.42-0.47,0.58c-0.2,0.16-0.44,0.28-0.71,0.37c-0.27,0.09-0.57,0.13-0.89,0.13
c-0.2,0-0.39-0.02-0.56-0.05c-0.15,0.1-0.23,0.2-0.23,0.31c0,0.11,0.05,0.18,0.16,0.23c0.1,0.05,0.24,0.08,0.41,0.1
c0.17,0.02,0.36,0.03,0.58,0.04c0.22,0.01,0.44,0.02,0.66,0.04c0.22,0.02,0.45,0.05,0.66,0.1s0.41,0.12,0.58,0.22
c0.17,0.1,0.31,0.24,0.41,0.41c0.1,0.17,0.16,0.39,0.16,0.66c0,0.25-0.06,0.5-0.19,0.73c-0.12,0.24-0.3,0.45-0.54,0.64
c-0.24,0.19-0.53,0.34-0.87,0.45c-0.34,0.11-0.73,0.17-1.17,0.17c-0.44,0-0.81-0.04-1.13-0.12c-0.32-0.08-0.58-0.19-0.8-0.33
c-0.21-0.14-0.37-0.29-0.47-0.47c-0.1-0.18-0.15-0.37-0.15-0.56c0-0.25,0.08-0.47,0.23-0.64c0.15-0.18,0.37-0.32,0.64-0.42
c-0.14-0.08-0.26-0.19-0.34-0.32c-0.09-0.13-0.13-0.3-0.13-0.51c0-0.17,0.06-0.35,0.18-0.53c0.12-0.19,0.31-0.34,0.57-0.47
c-0.29-0.15-0.52-0.36-0.69-0.62c-0.17-0.26-0.25-0.56-0.25-0.9c0-0.28,0.06-0.54,0.17-0.76c0.12-0.23,0.28-0.42,0.48-0.58
c0.2-0.16,0.45-0.28,0.72-0.36c0.28-0.08,0.58-0.13,0.91-0.13c0.48,0,0.91,0.09,1.28,0.29H147.4z M145.9,14.49
c0-0.1-0.03-0.18-0.09-0.24c-0.06-0.06-0.15-0.11-0.25-0.15c-0.1-0.04-0.23-0.06-0.37-0.08c-0.14-0.02-0.29-0.03-0.46-0.04
c-0.16-0.01-0.33-0.02-0.5-0.02c-0.17-0.01-0.34-0.02-0.51-0.04c-0.13,0.08-0.23,0.17-0.31,0.27c-0.08,0.1-0.12,0.22-0.12,0.35
c0,0.09,0.02,0.18,0.06,0.25c0.04,0.08,0.11,0.14,0.21,0.2c0.1,0.06,0.23,0.1,0.39,0.13c0.16,0.03,0.36,0.05,0.6,0.05
c0.25,0,0.46-0.02,0.63-0.05c0.17-0.03,0.31-0.08,0.42-0.14c0.11-0.06,0.18-0.13,0.23-0.22C145.88,14.68,145.9,14.59,145.9,14.49z
M144.47,11.22c0.31,0,0.54-0.08,0.69-0.24c0.15-0.16,0.22-0.36,0.22-0.61c0-0.26-0.07-0.46-0.22-0.61
c-0.15-0.15-0.38-0.22-0.69-0.22c-0.31,0-0.54,0.07-0.69,0.22s-0.22,0.35-0.22,0.61c0,0.25,0.07,0.45,0.22,0.61
C143.94,11.14,144.16,11.22,144.47,11.22z"></path>
<path d="M58.77,27.21v-4.57l-0.44-0.08c-0.11-0.02-0.21-0.06-0.28-0.12c-0.07-0.06-0.11-0.14-0.11-0.25v-0.6h0.82v-0.37
c0-0.32,0.05-0.61,0.15-0.87c0.1-0.26,0.24-0.48,0.43-0.66c0.19-0.18,0.41-0.32,0.69-0.42c0.27-0.1,0.58-0.15,0.91-0.15
c0.13,0,0.26,0.01,0.38,0.03s0.24,0.04,0.36,0.07l-0.03,0.75c-0.01,0.11-0.06,0.19-0.15,0.22c-0.09,0.03-0.19,0.05-0.3,0.05
c-0.15,0-0.29,0.02-0.41,0.05c-0.12,0.03-0.23,0.09-0.31,0.17c-0.08,0.08-0.15,0.18-0.19,0.32s-0.07,0.3-0.07,0.5v0.33h1.4v1.05
h-1.35v4.57H58.77z"></path>
<path d="M67.34,21.56v5.65h-0.93c-0.19,0-0.32-0.09-0.37-0.26l-0.1-0.39c-0.11,0.11-0.23,0.21-0.35,0.3
c-0.12,0.09-0.25,0.17-0.39,0.24c-0.14,0.07-0.29,0.12-0.44,0.15c-0.16,0.04-0.33,0.05-0.52,0.05c-0.31,0-0.58-0.05-0.82-0.16
c-0.24-0.11-0.44-0.25-0.6-0.44c-0.16-0.19-0.28-0.42-0.37-0.68c-0.08-0.26-0.13-0.55-0.13-0.87v-3.59h1.51v3.59
c0,0.31,0.07,0.56,0.22,0.73c0.14,0.17,0.36,0.26,0.64,0.26c0.21,0,0.41-0.05,0.6-0.14c0.19-0.09,0.36-0.22,0.53-0.38v-4.06H67.34
z M64.54,20.12c0,0.11-0.02,0.21-0.07,0.31c-0.04,0.1-0.1,0.18-0.18,0.25c-0.07,0.07-0.16,0.13-0.26,0.17
c-0.1,0.04-0.21,0.06-0.32,0.06c-0.11,0-0.21-0.02-0.3-0.06c-0.1-0.04-0.18-0.1-0.25-0.17c-0.07-0.07-0.13-0.15-0.18-0.25
c-0.04-0.09-0.07-0.2-0.07-0.31c0-0.11,0.02-0.21,0.07-0.31c0.04-0.1,0.1-0.19,0.18-0.26c0.07-0.07,0.16-0.13,0.25-0.18
c0.1-0.04,0.2-0.06,0.3-0.06c0.11,0,0.22,0.02,0.32,0.06c0.1,0.04,0.19,0.1,0.26,0.18s0.13,0.16,0.18,0.26
C64.52,19.91,64.54,20.01,64.54,20.12z M66.82,20.12c0,0.11-0.02,0.21-0.07,0.31c-0.04,0.1-0.1,0.18-0.18,0.25
c-0.07,0.07-0.16,0.13-0.26,0.17c-0.1,0.04-0.21,0.06-0.32,0.06c-0.11,0-0.21-0.02-0.31-0.06c-0.1-0.04-0.18-0.1-0.26-0.17
c-0.07-0.07-0.13-0.15-0.17-0.25c-0.04-0.09-0.06-0.2-0.06-0.31c0-0.11,0.02-0.21,0.06-0.31c0.04-0.1,0.1-0.19,0.17-0.26
c0.07-0.07,0.16-0.13,0.26-0.18c0.1-0.04,0.2-0.06,0.31-0.06c0.11,0,0.22,0.02,0.32,0.06c0.1,0.04,0.19,0.1,0.26,0.18
s0.13,0.16,0.18,0.26C66.79,19.91,66.82,20.01,66.82,20.12z"></path>
<path d="M70.07,22.49c0.18-0.32,0.39-0.58,0.62-0.76c0.23-0.19,0.51-0.28,0.82-0.28c0.26,0,0.46,0.06,0.62,0.18l-0.1,1.12
c-0.02,0.07-0.05,0.12-0.08,0.15c-0.04,0.03-0.09,0.04-0.16,0.04c-0.06,0-0.14-0.01-0.25-0.02s-0.21-0.02-0.31-0.02
c-0.14,0-0.26,0.02-0.37,0.06c-0.11,0.04-0.2,0.1-0.29,0.17c-0.08,0.07-0.16,0.16-0.23,0.27c-0.07,0.11-0.13,0.23-0.19,0.36v3.46
h-1.51v-5.65h0.89c0.15,0,0.26,0.03,0.32,0.08c0.06,0.05,0.1,0.15,0.13,0.29L70.07,22.49z"></path>
<path d="M77.13,20.55v2.04h2.65v1.24h-2.65v2.09h3.41v1.29h-5.06v-7.95h5.06v1.29H77.13z"></path>
<path d="M82.91,22.22c0.11-0.11,0.23-0.21,0.35-0.3c0.12-0.09,0.25-0.17,0.39-0.24c0.14-0.07,0.29-0.12,0.44-0.15
c0.16-0.04,0.33-0.05,0.52-0.05c0.31,0,0.58,0.05,0.82,0.16c0.24,0.11,0.44,0.25,0.6,0.44c0.16,0.19,0.29,0.42,0.37,0.68
c0.08,0.26,0.12,0.55,0.12,0.87v3.59h-1.51v-3.59c0-0.31-0.07-0.56-0.22-0.73c-0.15-0.17-0.36-0.26-0.65-0.26
c-0.21,0-0.41,0.05-0.6,0.14c-0.19,0.09-0.36,0.22-0.53,0.38v4.06h-1.51v-5.65h0.93c0.19,0,0.32,0.09,0.38,0.26L82.91,22.22z"></path>
<path d="M92.82,21.75v0.55c0,0.09-0.03,0.16-0.07,0.21c-0.05,0.05-0.13,0.09-0.24,0.12l-0.46,0.09c0.06,0.18,0.09,0.37,0.09,0.58
c0,0.28-0.06,0.53-0.17,0.76c-0.11,0.22-0.27,0.42-0.47,0.58c-0.2,0.16-0.44,0.28-0.71,0.37c-0.27,0.09-0.57,0.13-0.89,0.13
c-0.2,0-0.39-0.02-0.56-0.05c-0.15,0.1-0.23,0.2-0.23,0.31c0,0.11,0.05,0.18,0.16,0.23c0.1,0.05,0.24,0.08,0.41,0.1
c0.17,0.02,0.36,0.03,0.58,0.04c0.22,0.01,0.44,0.02,0.66,0.04c0.22,0.02,0.45,0.05,0.66,0.1c0.22,0.05,0.41,0.12,0.58,0.22
c0.17,0.1,0.31,0.24,0.41,0.41c0.1,0.17,0.16,0.39,0.16,0.66c0,0.25-0.06,0.5-0.19,0.73c-0.12,0.24-0.3,0.45-0.54,0.64
c-0.24,0.19-0.52,0.34-0.87,0.45c-0.34,0.11-0.73,0.17-1.17,0.17c-0.43,0-0.81-0.04-1.13-0.12c-0.32-0.08-0.58-0.19-0.79-0.33
c-0.21-0.14-0.37-0.29-0.47-0.47c-0.1-0.18-0.15-0.37-0.15-0.56c0-0.25,0.08-0.47,0.23-0.64c0.15-0.18,0.37-0.32,0.64-0.42
c-0.14-0.08-0.26-0.19-0.34-0.32c-0.09-0.13-0.13-0.3-0.13-0.51c0-0.17,0.06-0.35,0.18-0.53c0.12-0.19,0.31-0.34,0.57-0.47
c-0.29-0.15-0.52-0.36-0.69-0.62c-0.17-0.26-0.25-0.56-0.25-0.9c0-0.28,0.06-0.54,0.17-0.76s0.27-0.42,0.48-0.58
c0.2-0.16,0.45-0.28,0.72-0.36c0.28-0.08,0.58-0.13,0.9-0.13c0.48,0,0.91,0.09,1.28,0.29H92.82z M91.32,27.44
c0-0.1-0.03-0.18-0.09-0.24c-0.06-0.06-0.15-0.11-0.25-0.15c-0.1-0.04-0.23-0.06-0.37-0.08c-0.14-0.02-0.29-0.03-0.45-0.04
c-0.16-0.01-0.33-0.02-0.5-0.02c-0.17-0.01-0.34-0.02-0.5-0.04c-0.13,0.08-0.23,0.17-0.32,0.27c-0.08,0.1-0.12,0.22-0.12,0.35
c0,0.09,0.02,0.18,0.06,0.25s0.11,0.14,0.21,0.2c0.1,0.06,0.23,0.1,0.39,0.13c0.16,0.03,0.36,0.05,0.6,0.05
c0.25,0,0.46-0.02,0.63-0.05c0.17-0.03,0.31-0.08,0.42-0.14c0.11-0.06,0.18-0.13,0.23-0.22C91.29,27.63,91.32,27.54,91.32,27.44z
M89.89,24.18c0.31,0,0.54-0.08,0.69-0.24c0.15-0.16,0.22-0.36,0.22-0.61c0-0.26-0.07-0.46-0.22-0.61
c-0.15-0.15-0.38-0.22-0.69-0.22c-0.31,0-0.54,0.07-0.69,0.22c-0.15,0.15-0.22,0.35-0.22,0.61c0,0.25,0.07,0.45,0.22,0.61
C89.35,24.1,89.58,24.18,89.89,24.18z"></path>
<path d="M93.67,22.35c0.33-0.3,0.7-0.52,1.1-0.67c0.4-0.15,0.84-0.22,1.3-0.22c0.34,0,0.64,0.05,0.9,0.16
c0.26,0.11,0.49,0.26,0.67,0.46c0.18,0.2,0.33,0.43,0.43,0.7c0.1,0.27,0.15,0.57,0.15,0.89v3.55h-0.69
c-0.14,0-0.25-0.02-0.33-0.06c-0.07-0.04-0.14-0.12-0.18-0.25l-0.12-0.36c-0.14,0.12-0.28,0.23-0.41,0.33
c-0.13,0.1-0.27,0.17-0.41,0.24c-0.14,0.06-0.29,0.11-0.46,0.15s-0.34,0.05-0.54,0.05c-0.25,0-0.48-0.03-0.68-0.1
c-0.2-0.07-0.38-0.16-0.53-0.29s-0.26-0.29-0.34-0.48c-0.08-0.19-0.12-0.42-0.12-0.67c0-0.21,0.05-0.42,0.16-0.62
c0.11-0.21,0.29-0.4,0.55-0.57c0.26-0.17,0.6-0.31,1.03-0.42c0.43-0.11,0.97-0.17,1.61-0.19v-0.29c0-0.35-0.07-0.61-0.22-0.78
c-0.15-0.17-0.36-0.25-0.65-0.25c-0.21,0-0.38,0.03-0.52,0.07c-0.14,0.05-0.26,0.1-0.36,0.16c-0.1,0.06-0.2,0.11-0.29,0.16
c-0.09,0.05-0.2,0.07-0.32,0.07c-0.11,0-0.19-0.03-0.27-0.08c-0.07-0.05-0.13-0.12-0.18-0.19L93.67,22.35z M96.75,24.85
c-0.37,0.02-0.68,0.05-0.92,0.1c-0.25,0.05-0.44,0.11-0.58,0.18c-0.14,0.07-0.25,0.16-0.31,0.25c-0.06,0.09-0.09,0.19-0.09,0.3
c0,0.22,0.06,0.37,0.18,0.47c0.12,0.09,0.29,0.14,0.51,0.14c0.25,0,0.47-0.04,0.65-0.13c0.18-0.09,0.37-0.23,0.55-0.42V24.85z"></path>
<path d="M104.5,21.75v0.55c0,0.09-0.02,0.16-0.07,0.21c-0.05,0.05-0.13,0.09-0.24,0.12l-0.46,0.09c0.06,0.18,0.09,0.37,0.09,0.58
c0,0.28-0.06,0.53-0.17,0.76c-0.12,0.22-0.27,0.42-0.47,0.58c-0.2,0.16-0.44,0.28-0.71,0.37c-0.27,0.09-0.57,0.13-0.89,0.13
c-0.2,0-0.39-0.02-0.56-0.05c-0.15,0.1-0.23,0.2-0.23,0.31c0,0.11,0.05,0.18,0.16,0.23c0.1,0.05,0.24,0.08,0.41,0.1
c0.17,0.02,0.36,0.03,0.58,0.04c0.22,0.01,0.44,0.02,0.66,0.04c0.22,0.02,0.45,0.05,0.66,0.1c0.22,0.05,0.41,0.12,0.58,0.22
c0.17,0.1,0.31,0.24,0.41,0.41c0.1,0.17,0.16,0.39,0.16,0.66c0,0.25-0.06,0.5-0.19,0.73c-0.12,0.24-0.3,0.45-0.54,0.64
c-0.24,0.19-0.53,0.34-0.87,0.45s-0.73,0.17-1.17,0.17c-0.44,0-0.81-0.04-1.13-0.12c-0.32-0.08-0.58-0.19-0.8-0.33
c-0.21-0.14-0.37-0.29-0.47-0.47c-0.1-0.18-0.15-0.37-0.15-0.56c0-0.25,0.08-0.47,0.23-0.64c0.15-0.18,0.36-0.32,0.64-0.42
c-0.14-0.08-0.26-0.19-0.34-0.32c-0.09-0.13-0.13-0.3-0.13-0.51c0-0.17,0.06-0.35,0.18-0.53c0.12-0.19,0.31-0.34,0.57-0.47
c-0.29-0.15-0.52-0.36-0.69-0.62c-0.17-0.26-0.25-0.56-0.25-0.9c0-0.28,0.06-0.54,0.17-0.76c0.12-0.23,0.28-0.42,0.48-0.58
c0.21-0.16,0.45-0.28,0.72-0.36c0.28-0.08,0.58-0.13,0.9-0.13c0.48,0,0.91,0.09,1.28,0.29H104.5z M103,27.44
c0-0.1-0.03-0.18-0.09-0.24c-0.06-0.06-0.15-0.11-0.25-0.15c-0.1-0.04-0.23-0.06-0.37-0.08c-0.14-0.02-0.29-0.03-0.46-0.04
c-0.16-0.01-0.33-0.02-0.5-0.02c-0.17-0.01-0.34-0.02-0.5-0.04c-0.13,0.08-0.23,0.17-0.32,0.27c-0.08,0.1-0.12,0.22-0.12,0.35
c0,0.09,0.02,0.18,0.06,0.25s0.11,0.14,0.21,0.2c0.1,0.06,0.23,0.1,0.39,0.13c0.16,0.03,0.36,0.05,0.6,0.05
c0.25,0,0.46-0.02,0.63-0.05c0.17-0.03,0.31-0.08,0.42-0.14c0.11-0.06,0.18-0.13,0.23-0.22C102.97,27.63,103,27.54,103,27.44z
M101.57,24.18c0.31,0,0.54-0.08,0.69-0.24c0.15-0.16,0.22-0.36,0.22-0.61c0-0.26-0.07-0.46-0.22-0.61
c-0.15-0.15-0.38-0.22-0.69-0.22s-0.54,0.07-0.69,0.22c-0.15,0.15-0.22,0.35-0.22,0.61c0,0.25,0.07,0.45,0.22,0.61
C101.03,24.1,101.26,24.18,101.57,24.18z"></path>
<path d="M106.44,24.62c0.05,0.53,0.2,0.92,0.45,1.16c0.25,0.24,0.59,0.37,1,0.37c0.21,0,0.39-0.02,0.54-0.07
c0.15-0.05,0.29-0.1,0.4-0.16c0.11-0.06,0.22-0.11,0.31-0.16c0.09-0.05,0.18-0.07,0.28-0.07c0.12,0,0.21,0.04,0.27,0.13l0.44,0.55
c-0.16,0.19-0.34,0.34-0.53,0.46c-0.19,0.12-0.4,0.22-0.6,0.29c-0.21,0.07-0.42,0.12-0.63,0.15c-0.21,0.03-0.42,0.04-0.61,0.04
c-0.4,0-0.76-0.06-1.1-0.19c-0.34-0.13-0.64-0.32-0.89-0.58c-0.25-0.25-0.45-0.57-0.6-0.95c-0.15-0.38-0.22-0.81-0.22-1.31
c0-0.38,0.06-0.75,0.19-1.09c0.13-0.34,0.31-0.64,0.55-0.89s0.53-0.45,0.87-0.6c0.34-0.15,0.72-0.22,1.15-0.22
c0.36,0,0.7,0.06,1,0.17c0.31,0.12,0.57,0.28,0.79,0.5c0.22,0.22,0.39,0.49,0.52,0.81c0.12,0.32,0.18,0.68,0.18,1.09
c0,0.11,0,0.21-0.02,0.28c-0.01,0.07-0.03,0.13-0.05,0.18c-0.03,0.04-0.06,0.07-0.1,0.09c-0.04,0.02-0.1,0.03-0.17,0.03H106.44z
M108.82,23.72c0-0.16-0.02-0.31-0.06-0.45c-0.04-0.14-0.11-0.27-0.2-0.38c-0.09-0.11-0.21-0.2-0.35-0.26
c-0.14-0.06-0.31-0.1-0.5-0.1c-0.36,0-0.64,0.1-0.85,0.31c-0.21,0.2-0.34,0.5-0.4,0.88H108.82z"></path>
<path d="M111.17,27.21v-5.65h0.93c0.19,0,0.32,0.09,0.38,0.26l0.09,0.37c0.1-0.1,0.2-0.2,0.3-0.29s0.22-0.16,0.34-0.23
c0.12-0.06,0.25-0.11,0.39-0.15c0.14-0.04,0.29-0.05,0.46-0.05c0.35,0,0.63,0.09,0.86,0.28c0.23,0.18,0.4,0.43,0.51,0.74
c0.09-0.18,0.2-0.33,0.34-0.46s0.28-0.23,0.44-0.32c0.16-0.08,0.33-0.14,0.51-0.18c0.18-0.04,0.36-0.06,0.53-0.06
c0.32,0,0.6,0.05,0.84,0.14c0.25,0.1,0.45,0.24,0.62,0.42c0.17,0.18,0.29,0.41,0.38,0.68c0.09,0.27,0.13,0.57,0.13,0.91v3.59
h-1.51v-3.59c0-0.66-0.28-0.99-0.85-0.99c-0.13,0-0.25,0.02-0.35,0.06c-0.11,0.04-0.2,0.11-0.29,0.19
c-0.08,0.08-0.15,0.19-0.19,0.31c-0.05,0.12-0.07,0.27-0.07,0.43v3.59h-1.51v-3.59c0-0.36-0.07-0.61-0.21-0.76
c-0.14-0.15-0.35-0.23-0.62-0.23c-0.18,0-0.34,0.04-0.5,0.12c-0.16,0.08-0.3,0.2-0.44,0.34v4.12H111.17z"></path>
<path d="M121.68,24.62c0.05,0.53,0.2,0.92,0.45,1.16c0.25,0.24,0.59,0.37,1,0.37c0.21,0,0.39-0.02,0.54-0.07
c0.15-0.05,0.29-0.1,0.4-0.16c0.11-0.06,0.22-0.11,0.31-0.16c0.09-0.05,0.18-0.07,0.28-0.07c0.12,0,0.21,0.04,0.27,0.13l0.44,0.55
c-0.16,0.19-0.34,0.34-0.53,0.46c-0.19,0.12-0.4,0.22-0.6,0.29c-0.21,0.07-0.42,0.12-0.63,0.15c-0.21,0.03-0.42,0.04-0.61,0.04
c-0.4,0-0.76-0.06-1.1-0.19c-0.34-0.13-0.64-0.32-0.89-0.58c-0.25-0.25-0.45-0.57-0.6-0.95c-0.15-0.38-0.22-0.81-0.22-1.31
c0-0.38,0.06-0.75,0.19-1.09c0.13-0.34,0.31-0.64,0.55-0.89s0.53-0.45,0.87-0.6c0.34-0.15,0.72-0.22,1.15-0.22
c0.36,0,0.7,0.06,1,0.17c0.31,0.12,0.57,0.28,0.79,0.5c0.22,0.22,0.39,0.49,0.52,0.81c0.12,0.32,0.18,0.68,0.18,1.09
c0,0.11,0,0.21-0.02,0.28c-0.01,0.07-0.03,0.13-0.05,0.18c-0.03,0.04-0.06,0.07-0.1,0.09c-0.04,0.02-0.1,0.03-0.17,0.03H121.68z
M124.05,23.72c0-0.16-0.02-0.31-0.06-0.45c-0.04-0.14-0.11-0.27-0.2-0.38c-0.09-0.11-0.21-0.2-0.35-0.26
c-0.14-0.06-0.31-0.1-0.5-0.1c-0.36,0-0.64,0.1-0.85,0.31c-0.21,0.2-0.34,0.5-0.4,0.88H124.05z"></path>
<path d="M127.8,22.22c0.11-0.11,0.23-0.21,0.35-0.3s0.25-0.17,0.39-0.24c0.14-0.07,0.29-0.12,0.44-0.15
c0.16-0.04,0.33-0.05,0.52-0.05c0.31,0,0.58,0.05,0.82,0.16c0.24,0.11,0.44,0.25,0.6,0.44c0.16,0.19,0.29,0.42,0.37,0.68
c0.08,0.26,0.12,0.55,0.12,0.87v3.59h-1.51v-3.59c0-0.31-0.07-0.56-0.22-0.73c-0.15-0.17-0.36-0.26-0.65-0.26
c-0.21,0-0.41,0.05-0.6,0.14c-0.19,0.09-0.36,0.22-0.53,0.38v4.06h-1.51v-5.65h0.93c0.19,0,0.32,0.09,0.38,0.26L127.8,22.22z"></path>
<path d="M134.54,27.3c-0.26,0-0.48-0.04-0.68-0.11c-0.2-0.07-0.36-0.18-0.5-0.32c-0.14-0.14-0.24-0.31-0.31-0.5
c-0.07-0.2-0.1-0.42-0.1-0.67v-3.05h-0.53c-0.08,0-0.15-0.03-0.21-0.08c-0.06-0.05-0.08-0.13-0.08-0.23v-0.59l0.9-0.16l0.31-1.46
c0.04-0.16,0.15-0.25,0.33-0.25h0.79v1.72h1.46v1.05h-1.46v2.95c0,0.16,0.04,0.28,0.11,0.37s0.18,0.14,0.32,0.14
c0.07,0,0.14-0.01,0.19-0.02c0.05-0.02,0.09-0.04,0.13-0.06c0.04-0.02,0.07-0.04,0.1-0.05s0.06-0.02,0.1-0.02
c0.04,0,0.08,0.01,0.11,0.03c0.03,0.02,0.06,0.05,0.09,0.1l0.46,0.72c-0.21,0.16-0.44,0.29-0.71,0.37
C135.1,27.26,134.83,27.3,134.54,27.3z"></path>
</g>
<g>
<path class="st0" d="M44.94,14.22c-1.16-1.43-6.99-2.81-14.94-1.69c-1.47,0.21-3,0.49-4.54,0.85
C11.85,16.55,9.94,27.93,9.69,30.17c-0.3,2.75-0.25,6.4,2.83,10.31c3.17,3.81,6.73,4.61,9.47,4.89c0.55,0.06,1.13,0.08,1.72,0.08
c0.88,0,1.77-0.06,2.65-0.19c3.91-0.55,11.11-2.82,15.33-11.82C46.9,22.36,45.87,15.38,44.94,14.22z M40.51,32.89
c-3.96,8.45-10.67,10.57-14.32,11.08c-1.37,0.19-2.77,0.23-4.05,0.1c-2.5-0.25-5.73-0.98-8.58-4.41
c-2.78-3.52-2.82-6.84-2.55-9.34c0.23-2.09,2.01-12.69,14.75-15.65c1.51-0.35,3-0.63,4.43-0.83c1.92-0.27,3.79-0.41,5.55-0.41
c5.14,0,7.77,1.11,8.18,1.62C44.3,15.53,45.76,21.7,40.51,32.89z"></path>
<path class="st1" d="M36.08,6.12c-1.16-0.79-4.17-0.44-5.07-0.31c-2.91,0.41-7.67,1.65-13.81,5.21
C5.12,18.03,6.62,29.46,7.04,31.69c0.52,2.71,1.64,6.19,5.73,9.03c2.31,1.51,4.68,2.25,7.26,2.25c0.68,0,1.4-0.05,2.12-0.15
c0.36-0.05,0.73-0.11,1.11-0.19c2.22-0.44,13.38-3.34,15.35-17.17C40.34,13.34,37.32,6.96,36.08,6.12z M37.31,25.27
c-1.85,12.95-12.24,15.65-14.31,16.06c-0.36,0.07-0.7,0.13-1.04,0.17c-3.14,0.44-5.83-0.16-8.46-1.88
c-3.69-2.56-4.7-5.72-5.17-8.18c-0.39-2.07-1.79-12.72,9.53-19.28C23.83,8.7,28.41,7.51,31.2,7.11c0.82-0.11,1.61-0.18,2.3-0.18
c1.07,0,1.66,0.14,1.85,0.28C35.86,7.56,39.06,13.04,37.31,25.27z"></path>
<path d="M33.34,18.71C31.45,6.62,26.69,1.4,25.27,0.96c-0.33-0.1-0.72-0.11-1.25-0.04c-2.5,0.35-8.56,2.9-15.37,10.24
C-0.86,21.4,3.91,31.9,4.97,33.9c1.29,2.44,3.38,5.44,8.12,6.96c1.37,0.4,2.65,0.59,3.93,0.59c0.57,0,1.14-0.04,1.7-0.12
c1.63-0.23,3.2-0.77,4.96-1.72C25.67,38.55,35.5,32.52,33.34,18.71z M23.05,38.46c-1.62,0.87-3.05,1.37-4.52,1.57
c-1.63,0.23-3.29,0.09-5.06-0.43c-4.27-1.37-6.16-4.09-7.34-6.31C5.15,31.42,0.7,21.65,9.61,12.06c6.56-7.06,12.26-9.5,14.59-9.83
c0.16-0.02,0.3-0.03,0.42-0.03c0.14,0,0.22,0.02,0.26,0.03c0.6,0.18,5.25,4.49,7.16,16.7C34.06,31.84,24.91,37.46,23.05,38.46z"></path>
</g>
<path d="M63.21,34.47v5.65h-0.93c-0.19,0-0.32-0.09-0.37-0.26l-0.1-0.39c-0.11,0.11-0.23,0.21-0.35,0.3
c-0.12,0.09-0.25,0.17-0.39,0.24c-0.14,0.07-0.28,0.12-0.44,0.15c-0.16,0.04-0.33,0.05-0.52,0.05c-0.31,0-0.58-0.05-0.82-0.16
c-0.24-0.11-0.44-0.25-0.6-0.44c-0.16-0.19-0.28-0.42-0.37-0.68c-0.08-0.26-0.13-0.55-0.13-0.87v-3.59h1.51v3.59
c0,0.31,0.07,0.56,0.22,0.73c0.14,0.17,0.36,0.26,0.64,0.26c0.21,0,0.41-0.05,0.6-0.14c0.19-0.09,0.36-0.22,0.53-0.38v-4.06H63.21z
"></path>
<path d="M65.92,35.13c0.11-0.11,0.23-0.21,0.35-0.3c0.12-0.09,0.25-0.17,0.39-0.24c0.14-0.07,0.29-0.12,0.44-0.15
c0.16-0.04,0.33-0.05,0.52-0.05c0.31,0,0.58,0.05,0.82,0.16c0.24,0.11,0.44,0.25,0.6,0.44c0.16,0.19,0.29,0.42,0.37,0.68
c0.08,0.26,0.12,0.55,0.12,0.87v3.59h-1.51v-3.59c0-0.31-0.07-0.56-0.22-0.73c-0.15-0.17-0.36-0.26-0.65-0.26
c-0.21,0-0.41,0.05-0.6,0.14s-0.36,0.22-0.53,0.38v4.06h-1.51v-5.65h0.93c0.19,0,0.32,0.09,0.38,0.26L65.92,35.13z"></path>
<path d="M75.79,31.95v8.17h-0.93c-0.19,0-0.32-0.09-0.37-0.26l-0.13-0.49c-0.11,0.12-0.23,0.24-0.36,0.34
c-0.13,0.1-0.26,0.19-0.41,0.27c-0.15,0.07-0.3,0.13-0.47,0.17c-0.17,0.04-0.35,0.06-0.55,0.06c-0.3,0-0.58-0.06-0.83-0.19
c-0.25-0.13-0.47-0.32-0.65-0.56s-0.33-0.55-0.43-0.91c-0.1-0.36-0.15-0.77-0.15-1.23c0-0.42,0.06-0.81,0.17-1.17
c0.11-0.36,0.28-0.67,0.49-0.94c0.21-0.26,0.47-0.47,0.77-0.62c0.3-0.15,0.63-0.22,1-0.22c0.31,0,0.57,0.05,0.78,0.14
c0.21,0.09,0.4,0.22,0.57,0.37v-2.92H75.79z M74.27,35.94c-0.14-0.16-0.3-0.28-0.46-0.35s-0.34-0.1-0.53-0.1
c-0.18,0-0.35,0.04-0.5,0.1c-0.15,0.07-0.28,0.18-0.39,0.33c-0.11,0.15-0.19,0.34-0.25,0.57c-0.06,0.23-0.09,0.5-0.09,0.82
c0,0.31,0.02,0.58,0.07,0.8c0.05,0.22,0.12,0.4,0.21,0.53c0.09,0.14,0.2,0.23,0.33,0.29c0.13,0.06,0.27,0.09,0.43,0.09
c0.27,0,0.49-0.05,0.67-0.16c0.18-0.11,0.35-0.26,0.51-0.45V35.94z"></path>
<path d="M81.62,33.46v2.04h2.65v1.24h-2.65v2.09h3.41v1.29h-5.06v-7.95h5.06v1.29H81.62z"></path>
<path d="M87.6,35.03c0.11-0.09,0.22-0.18,0.33-0.26c0.11-0.08,0.24-0.15,0.37-0.2c0.13-0.06,0.27-0.1,0.42-0.13
c0.15-0.03,0.31-0.05,0.48-0.05c0.31,0,0.58,0.05,0.82,0.16c0.24,0.11,0.44,0.25,0.6,0.44c0.16,0.19,0.29,0.42,0.37,0.68
c0.08,0.26,0.12,0.55,0.12,0.87v3.59H89.6v-3.59c0-0.31-0.07-0.56-0.22-0.73c-0.15-0.17-0.36-0.26-0.65-0.26
c-0.21,0-0.41,0.05-0.6,0.14c-0.19,0.09-0.36,0.22-0.53,0.38v4.06h-1.51v-8.17h1.51V35.03z"></path>
<path d="M93.78,35.4c0.18-0.32,0.39-0.58,0.62-0.76c0.23-0.19,0.51-0.28,0.82-0.28c0.26,0,0.46,0.06,0.62,0.18l-0.1,1.12
c-0.02,0.07-0.05,0.12-0.09,0.15c-0.04,0.03-0.09,0.04-0.16,0.04c-0.06,0-0.14-0.01-0.25-0.02c-0.11-0.02-0.21-0.02-0.31-0.02
c-0.14,0-0.26,0.02-0.37,0.06s-0.2,0.1-0.29,0.17c-0.08,0.07-0.16,0.16-0.23,0.27c-0.07,0.11-0.13,0.23-0.19,0.36v3.46h-1.51v-5.65
h0.89c0.15,0,0.26,0.03,0.32,0.08c0.06,0.05,0.1,0.15,0.13,0.29L93.78,35.4z"></path>
<path d="M97.62,37.53c0.05,0.53,0.2,0.92,0.45,1.16c0.25,0.24,0.58,0.37,0.99,0.37c0.21,0,0.39-0.02,0.54-0.07
c0.15-0.05,0.29-0.1,0.4-0.16s0.22-0.12,0.31-0.16c0.09-0.05,0.18-0.07,0.28-0.07c0.12,0,0.21,0.04,0.27,0.13l0.44,0.55
c-0.16,0.19-0.34,0.34-0.53,0.46c-0.19,0.12-0.39,0.22-0.6,0.29c-0.21,0.07-0.42,0.12-0.63,0.15c-0.21,0.03-0.42,0.04-0.61,0.04
c-0.39,0-0.76-0.06-1.1-0.19c-0.34-0.13-0.64-0.32-0.89-0.58c-0.25-0.25-0.45-0.57-0.6-0.95c-0.15-0.38-0.22-0.81-0.22-1.31
c0-0.38,0.06-0.75,0.19-1.09c0.13-0.34,0.31-0.64,0.54-0.89s0.53-0.45,0.87-0.6c0.34-0.15,0.72-0.22,1.15-0.22
c0.36,0,0.69,0.06,1,0.17c0.31,0.12,0.57,0.28,0.79,0.5c0.22,0.22,0.39,0.49,0.52,0.81c0.12,0.32,0.18,0.68,0.18,1.09
c0,0.11,0,0.21-0.02,0.28c-0.01,0.07-0.03,0.13-0.06,0.18c-0.03,0.04-0.06,0.07-0.1,0.09c-0.04,0.02-0.1,0.02-0.17,0.02H97.62z
M100,36.63c0-0.16-0.02-0.31-0.06-0.45c-0.04-0.14-0.11-0.27-0.2-0.38c-0.09-0.11-0.21-0.2-0.35-0.26s-0.3-0.1-0.5-0.1
c-0.36,0-0.65,0.1-0.85,0.31c-0.21,0.2-0.34,0.5-0.4,0.88H100z"></path>
<path d="M103.75,35.13c0.11-0.11,0.23-0.21,0.35-0.3c0.12-0.09,0.25-0.17,0.39-0.24c0.14-0.07,0.29-0.12,0.44-0.15
s0.33-0.05,0.52-0.05c0.31,0,0.58,0.05,0.82,0.16c0.24,0.11,0.44,0.25,0.6,0.44c0.16,0.19,0.29,0.42,0.37,0.68
c0.08,0.26,0.12,0.55,0.12,0.87v3.59h-1.51v-3.59c0-0.31-0.07-0.56-0.22-0.73c-0.15-0.17-0.36-0.26-0.65-0.26
c-0.21,0-0.41,0.05-0.6,0.14c-0.19,0.09-0.36,0.22-0.53,0.38v4.06h-1.51v-5.65h0.93c0.19,0,0.32,0.09,0.38,0.26L103.75,35.13z"></path>
<path d="M108.49,35.26c0.33-0.3,0.7-0.52,1.1-0.67c0.4-0.15,0.84-0.22,1.3-0.22c0.34,0,0.64,0.05,0.9,0.16
c0.27,0.11,0.49,0.26,0.67,0.46c0.18,0.2,0.33,0.43,0.43,0.7c0.1,0.27,0.15,0.57,0.15,0.89v3.55h-0.69c-0.14,0-0.25-0.02-0.33-0.06
c-0.07-0.04-0.14-0.12-0.18-0.25l-0.12-0.36c-0.14,0.12-0.28,0.23-0.41,0.33c-0.13,0.1-0.27,0.17-0.41,0.24
c-0.14,0.06-0.29,0.11-0.46,0.15c-0.16,0.03-0.34,0.05-0.55,0.05c-0.25,0-0.47-0.03-0.68-0.1c-0.2-0.07-0.38-0.16-0.53-0.29
c-0.15-0.13-0.26-0.29-0.34-0.49c-0.08-0.19-0.12-0.42-0.12-0.67c0-0.21,0.05-0.42,0.16-0.62s0.29-0.4,0.54-0.57
c0.26-0.17,0.6-0.31,1.03-0.42c0.43-0.11,0.97-0.17,1.61-0.19v-0.29c0-0.35-0.07-0.61-0.22-0.78s-0.37-0.25-0.65-0.25
c-0.21,0-0.38,0.02-0.52,0.07c-0.14,0.05-0.26,0.1-0.36,0.16c-0.1,0.06-0.2,0.11-0.29,0.16c-0.09,0.05-0.2,0.07-0.32,0.07
c-0.11,0-0.19-0.03-0.27-0.08c-0.07-0.05-0.13-0.12-0.18-0.19L108.49,35.26z M111.57,37.76c-0.37,0.02-0.68,0.05-0.92,0.1
c-0.25,0.05-0.44,0.11-0.58,0.18c-0.15,0.07-0.25,0.16-0.31,0.25c-0.06,0.09-0.09,0.19-0.09,0.3c0,0.22,0.06,0.37,0.18,0.47
c0.12,0.09,0.29,0.14,0.51,0.14c0.25,0,0.47-0.04,0.65-0.13c0.18-0.09,0.37-0.23,0.55-0.42V37.76z"></path>
<path d="M114.29,40.12v-5.65h0.93c0.19,0,0.32,0.09,0.38,0.26l0.09,0.37c0.1-0.1,0.2-0.2,0.3-0.29c0.1-0.09,0.22-0.16,0.34-0.23
s0.25-0.11,0.39-0.15c0.14-0.04,0.29-0.05,0.46-0.05c0.35,0,0.63,0.09,0.86,0.28c0.23,0.18,0.4,0.43,0.52,0.74
c0.09-0.18,0.2-0.33,0.34-0.46c0.13-0.13,0.28-0.24,0.44-0.32c0.16-0.08,0.33-0.14,0.5-0.18c0.18-0.04,0.36-0.06,0.53-0.06
c0.32,0,0.6,0.05,0.84,0.14c0.25,0.1,0.45,0.24,0.62,0.42c0.17,0.18,0.29,0.41,0.38,0.68s0.13,0.57,0.13,0.91v3.59h-1.51v-3.59
c0-0.66-0.28-0.99-0.85-0.99c-0.13,0-0.25,0.02-0.35,0.06s-0.2,0.11-0.29,0.19c-0.08,0.08-0.15,0.19-0.19,0.31
c-0.05,0.12-0.07,0.27-0.07,0.43v3.59h-1.51v-3.59c0-0.36-0.07-0.61-0.21-0.76c-0.14-0.15-0.35-0.23-0.62-0.23
c-0.18,0-0.34,0.04-0.5,0.12c-0.15,0.08-0.3,0.2-0.44,0.34v4.12H114.29z"></path>
<path d="M125.46,40.21c-0.26,0-0.48-0.04-0.68-0.11c-0.2-0.07-0.36-0.18-0.5-0.32c-0.14-0.14-0.24-0.31-0.31-0.5
c-0.07-0.2-0.1-0.42-0.1-0.67v-3.05h-0.53c-0.08,0-0.15-0.03-0.21-0.08c-0.06-0.05-0.08-0.13-0.08-0.23v-0.59l0.9-0.16l0.31-1.46
c0.04-0.16,0.15-0.25,0.33-0.25h0.79v1.72h1.46v1.05h-1.46v2.95c0,0.16,0.04,0.28,0.11,0.37s0.18,0.14,0.32,0.14
c0.07,0,0.14-0.01,0.19-0.02c0.05-0.02,0.09-0.03,0.13-0.05c0.04-0.02,0.07-0.04,0.1-0.05c0.03-0.02,0.06-0.02,0.1-0.02
c0.04,0,0.08,0.01,0.11,0.03c0.03,0.02,0.06,0.05,0.09,0.1l0.46,0.72c-0.21,0.16-0.44,0.29-0.71,0.37
C126.02,40.17,125.74,40.21,125.46,40.21z"></path>
</g>
</svg>